<?xml version="1.0" encoding="UTF-8"?>
<svg xmlns="http://www.w3.org/2000/svg" onmouseup="{ if(window.parent.document.onmouseup) window.parent.document.onmouseup(arguments[0]);}" width="36" viewBox="0 0 36 36" id="S_VideoOutline_18_N_2x" height="36" data-name="S_VideoOutline_18_N@2x"><defs><style>
      .fill {
        fill: #6e6e6e;
      }

      
    </style></defs><path data-cppathid="10000" d="M31,4H5A1,1,0,0,0,4,5V31a1,1,0,0,0,1,1H31a1,1,0,0,0,1-1V5A1,1,0,0,0,31,4ZM10,29.5a.5.5,0,0,1-.5.5h-3a.5.5,0,0,1-.5-.5v-3a.5.5,0,0,1,.5-.5h3a.5.5,0,0,1,.5.5Zm0-6.706a.5.5,0,0,1-.5.5h-3a.5.5,0,0,1-.5-.5v-3a.5.5,0,0,1,.5-.5h3a.5.5,0,0,1,.5.5Zm0-6.588a.5.5,0,0,1-.5.5h-3a.5.5,0,0,1-.5-.5v-3a.5.5,0,0,1,.5-.5h3a.5.5,0,0,1,.5.5ZM10,9.5a.5.5,0,0,1-.5.5h-3A.5.5,0,0,1,6,9.5v-3A.5.5,0,0,1,6.5,6h3a.5.5,0,0,1,.5.5ZM24,30H12V20H24Zm0-14H12V6H24Zm6,13.5a.5.5,0,0,1-.5.5h-3a.5.5,0,0,1-.5-.5v-3a.5.5,0,0,1,.5-.5h3a.5.5,0,0,1,.5.5Zm0-6.706a.5.5,0,0,1-.5.5h-3a.5.5,0,0,1-.5-.5v-3a.5.5,0,0,1,.5-.5h3a.5.5,0,0,1,.5.5Zm0-6.588a.5.5,0,0,1-.5.5h-3a.5.5,0,0,1-.5-.5v-3a.5.5,0,0,1,.5-.5h3a.5.5,0,0,1,.5.5ZM30,9.5a.5.5,0,0,1-.5.5h-3a.5.5,0,0,1-.5-.5v-3a.5.5,0,0,1,.5-.5h3a.5.5,0,0,1,.5.5Z" class="fill"/></svg>